<?xml version="1.0" encoding="utf-8"?>
<!DOCTYPE svg PUBLIC "-//W3C//DTD SVG 20010904//EN" "http://www.w3.org/TR/2001/REC-SVG-20010904/DTD/svg10.dtd">
<svg version="1.0" xmlns="http://www.w3.org/2000/svg" width="3125px" height="1875px" viewBox="0 0 3125 1875" preserveAspectRatio="xMidYMid meet">
 <g fill="#ffe01b">
  <path d="M394.7 1526.1 c-3 -1.1 -5.9 -2.4 -6.5 -3 -0.7 -0.6 -1.9 -1.1 -2.8 -1.1 -2.4 0 -12.1 -8.6 -17.7 -15.5 -3.8 -4.8 -8.1 -20.5 -8.1 -29.4 0 -9.4 4.8 -26.3 8.6 -29.7 1.2 -1.1 2.3 -2.7 2.3 -3.5 0 -0.7 2.2 -2.9 4.8 -5 2.8 -1.9 6.1 -4.5 7.4 -5.6 4.5 -3.6 19.3 -7.6 28.3 -7.6 15.5 0.1 33.9 9 40.2 19.4 3.4 5.4 7.7 15.5 8.8 20.3 4.2 18.3 -3.1 40.1 -17.6 52.1 -2.9 2.4 -5.8 4.5 -6.4 4.5 -0.7 0 -4.1 1.3 -7.7 3 -5.3 2.5 -8.2 3 -17.3 2.9 -6.5 0 -13.1 -0.7 -16.3 -1.8z m24.7 -22.9 c13.2 -5.6 19.7 -22.2 14.7 -37 -2.5 -7.1 -6.7 -11.5 -13.4 -14.4 -7.1 -3.1 -12.8 -3 -20.5 0.1 -11.5 4.8 -17.1 17.2 -14 31.6 1.8 9.1 5.1 13.6 12.8 18 6.9 4 13.6 4.5 20.5 1.7z"/>
  <path d="M540.6 1527.1 c-5.2 -1.3 -14.8 -5.8 -18.9 -9 -2.4 -1.9 -5.9 -6.3 -7.9 -9.8 l-3.5 -6.4 -0.4 -37.2 -0.4 -37.3 11.5 0 11.5 0 0.4 34.9 0.4 34.9 4 3.9 c3.6 3.5 4.6 3.9 11.7 3.9 7.1 0 8.2 -0.4 11.9 -3.8 l3.9 -3.8 0.4 -35 0.4 -35 11.5 0 11.5 0 -0.4 37.3 -0.4 37.2 -3.1 6.1 c-4.1 7.7 -9.8 12.3 -20.1 16.6 -7.9 3.1 -17.2 4.1 -24 2.5z"/>
  <path d="M855.4 1524.7 c-7.5 -3.4 -16.8 -11.7 -18.9 -17 -0.6 -1.6 -1.1 -4.8 -1.1 -7.1 l0 -4.1 11.4 0 c10.2 0 11.4 0.2 12 2.3 1.2 4.6 6.7 6.8 17 6.7 9.2 0 9.8 -0.2 12.5 -3.6 3 -3.6 2.9 -6.8 -0.4 -9.9 -2.7 -2.7 -12.1 -5.1 -20 -5.1 -7.7 0 -17.7 -3.4 -22.5 -7.7 -1.6 -1.5 -4.4 -5 -6.1 -8 -4.6 -7.6 -4.5 -19.9 0.1 -27.8 6.3 -10.9 19 -17.3 34.1 -17.4 19.3 0 36.9 12.7 36.9 26.8 l0 5.2 -11.4 0 c-10.9 0 -11.5 -0.1 -11.9 -2.7 -0.2 -1.5 -2.3 -4 -4.6 -5.6 -9.4 -6.4 -25.9 1.1 -23.4 10.7 1 3.6 7 6.1 20.3 8 6.7 1.1 14.4 2.8 17.3 3.8 11.1 3.9 17.1 12.6 17.2 24.7 0 12.6 -6.2 21.4 -19.6 27.7 -6.9 3.3 -8.8 3.6 -19.7 3.6 -10.4 0 -13.1 -0.5 -19.4 -3.3z"/>
  <path d="M992 1525.8 c-2.8 -1.1 -5.4 -2.4 -5.9 -2.9 -0.5 -0.6 -1.8 -1 -2.9 -1 -1.8 0 -13.8 -10.8 -18 -16.2 -3.5 -4.5 -7.4 -20 -7.4 -29.3 0 -9.4 4.1 -24.2 7.9 -28.3 1 -1.1 1.8 -2.5 1.8 -3.1 0 -1.2 6.4 -7.4 10.3 -9.8 10.5 -6.7 24.9 -10.7 34.1 -9.6 7.5 0.8 21.9 5.4 25.2 8.1 6.1 4.6 14.9 14.7 16.2 18.3 0.8 2.2 1.9 4.8 2.5 5.9 2.1 4 4 17.1 3.3 23.2 -0.4 3.5 -1.9 10 -3.4 14.8 -2.4 7 -4.1 9.7 -10.8 16.5 -11.4 11.5 -18.6 14.7 -35.1 15.3 -10 0.2 -13.8 -0.1 -17.8 -1.8z m26 -23.2 c12.2 -5.6 17.9 -18 14.8 -32.8 -1.9 -8.8 -7.4 -15.4 -15.5 -18.5 -6.9 -2.5 -12.1 -2.4 -19.3 0.6 -12.2 5.2 -17.6 18.8 -13.4 34.6 0.8 3.3 2.5 6.9 3.6 8.1 1.2 1.3 2.2 2.8 2.2 3.3 0 0.5 1 1.2 2.2 1.6 1.1 0.5 4 1.9 6.3 3.1 5.3 3 12.5 3 19.1 0z"/>
  <path d="M1355.9 1522.3 c-1.5 -3.3 -3.1 -7.4 -3.6 -9.4 -1.8 -6.9 -8.6 -25.4 -9.7 -26.5 -0.6 -0.7 -1.1 -2.2 -1.1 -3.5 0 -1.2 -1.3 -5.2 -3 -8.8 -1.7 -3.6 -3 -7.3 -3 -8.1 0 -0.8 -1.3 -4.7 -2.9 -8.7 -5.8 -14.8 -7.9 -20.7 -8.7 -25.1 l-0.7 -4.6 12.1 0 12.1 0 2.3 6.4 c1.3 3.4 3 8.2 3.9 10.5 5.8 17.1 9 26.9 10.4 32.1 l1.5 6.1 2.1 -4.8 c1.2 -2.7 2.4 -6.4 2.8 -8.5 0.4 -1.9 1.6 -6.3 2.8 -9.7 1.9 -5.4 8.2 -25.4 9.2 -29.3 0.2 -1 2.5 -1.6 5.9 -1.6 4.5 0 5.4 0.4 5.4 2.3 0 1.2 1 4.8 2.3 8.1 1.2 3.3 3.8 10.9 5.6 16.8 4.6 14.7 8.4 24.8 9.1 24.8 0.4 0 2.3 -5.8 4.5 -13 4 -14 5.1 -17.4 9.6 -29.2 1.6 -4.1 2.9 -8.4 2.9 -9.3 0 -1.5 2.3 -1.8 12.8 -1.8 12.7 0 12.7 0 11.9 2.8 -0.5 1.5 -1.2 4.4 -1.8 6.3 -0.5 2.1 -1.9 6.4 -3.3 9.7 -1.3 3.4 -3 8 -3.9 10.3 -7.6 21.6 -13.9 39.5 -16.3 46 -3.3 9.3 -5.3 14.8 -7.3 20.6 -1.5 4.1 -1.8 4.2 -8.1 4.6 l-6.5 0.4 -3.1 -8.2 c-5.3 -14.4 -7.3 -20.2 -8.8 -26.4 -2.1 -8.1 -4 -12.7 -5.3 -12.7 -0.5 0 -2.1 3.1 -3.4 7 -1.3 3.8 -3.3 9.3 -4.4 12.3 -1 3 -2.4 7.1 -3.1 9.1 -0.6 2.1 -2.4 7 -3.9 11.3 l-2.5 7.5 -5.9 0 c-5.8 0 -5.9 0 -8.5 -5.7z"/>
  <path d="M1957.8 1527.1 c-12.6 -4.6 -23.1 -13.6 -24.6 -20.8 -0.4 -1.9 -1.1 -4.8 -1.6 -6.7 l-0.7 -3.1 12.2 0 c9.3 0 12.2 0.4 12.2 1.6 0 1 1.3 2.9 3 4.5 2.8 2.5 4.2 2.9 13.4 2.9 9.6 0 10.5 -0.2 12.7 -2.9 6.7 -8.8 -2.5 -15.7 -20.8 -15.7 -6.3 0 -16.2 -3.5 -21.7 -7.6 -6.3 -4.7 -8.5 -10.3 -8.5 -21.4 0 -8.4 0.5 -11.1 2.5 -14.5 9.1 -15.1 30.9 -21.7 49.8 -14.8 7.4 2.7 15.5 8.4 15.5 10.9 0 0.7 0.5 1.5 1 1.5 1.7 0 5.1 8.4 5.1 12.7 l0 4.2 -11.5 0 c-10.5 0 -11.5 -0.2 -11.5 -2.3 0 -4 -7 -8 -14 -8 -7.9 0 -15 4.8 -15 10.3 0 5.3 4.8 8 18.9 10.3 6.5 1.1 13.7 2.2 15.6 2.5 2.1 0.2 6.2 2.2 9.3 4.1 10.2 6.3 14.3 19.5 9.9 31.5 -2.9 8.1 -8.2 13.4 -18 18 -7.1 3.4 -8.8 3.8 -19.7 3.6 -6.4 0 -12.6 -0.4 -13.6 -0.7z"/>
  <path d="M2089.8 1526.3 c-10.9 -4.1 -14.4 -6.4 -21.8 -13.9 -6.9 -7.1 -8.2 -9.2 -10.9 -17.7 -6.2 -19.5 -2.5 -39.2 9.6 -52.4 3.1 -3.5 6.3 -6.3 7 -6.3 0.6 0 2.2 -1.1 3.4 -2.4 1.1 -1.2 5.9 -3.5 10.8 -5.1 10.7 -3.4 22.9 -3.6 32.2 -0.5 8 2.5 14.5 5.8 14.5 7 0 0.6 0.6 1 1.2 1 1.8 0 9.7 7.7 9.7 9.6 0 0.7 0.4 1.3 1 1.3 1.3 0 4.5 6.9 6.9 15 3.8 12.5 0.7 35.6 -5.6 43.8 -1 1.2 -4.7 5.2 -8.6 8.8 -9.4 9.3 -20.3 13.6 -34.9 13.4 -5.7 -0.1 -12.2 -0.8 -14.5 -1.7z m26 -24.5 c11.3 -5.7 15.5 -15.5 13.4 -31 -1 -7.1 -1.9 -9.2 -6.5 -14 -12.1 -12.8 -35 -8 -41 8.8 -5.4 14.9 0.2 30.4 13.4 36.9 6.8 3.3 13.3 3 20.7 -0.7z"/>
  <path d="M2341 1526.3 c-11.9 -3.8 -20.7 -10.8 -25.2 -20.1 -2.5 -5.2 -2.7 -7.4 -3 -42 l-0.4 -36.7 12.1 0 12.2 0 0 34.9 0 34.9 3.5 3.9 c3.4 3.6 4.1 3.9 11.6 3.9 7.6 0 8.4 -0.2 12.2 -4.1 l4.1 -4.1 0 -34.6 0 -34.6 11.5 0 11.5 0 0 36.4 c0 36.1 0 36.4 -3 42.6 -4.6 9.9 -11.9 15.5 -25.9 20.1 -5.3 1.7 -15.1 1.6 -21.3 -0.4z"/>
  <path d="M2670.4 1524.6 c-12.2 -4.7 -22.9 -15.6 -27.6 -28 -3.1 -8.2 -3.4 -10.2 -3 -21.8 0.4 -10.3 1 -13.9 3.1 -18.2 1.5 -3 2.7 -6.1 2.7 -6.7 0 -1.6 11.7 -14 13.2 -14 0.5 0 1.9 -1.1 3 -2.3 1.2 -1.3 6.1 -3.6 10.8 -5.1 29.1 -9.2 59.3 5.8 65.7 32.7 1.9 8.2 2.2 20.8 0.4 29.4 -1.3 6.8 -4.6 14.3 -6.2 14.3 -0.6 0 -1 0.7 -1 1.6 0 1.7 -6.5 8.7 -11.5 12.3 -1.8 1.3 -6.9 3.9 -11.4 5.7 -11.4 4.7 -26.2 4.7 -38.3 0z m30.6 -22.9 c4.4 -2.2 7.5 -5 9.9 -8.6 3.4 -5.1 3.6 -6.3 3.6 -16.2 0 -11.3 -0.7 -13.3 -7 -20.5 -4 -4.5 -14 -7.7 -21.2 -6.7 -3.1 0.5 -5.9 1.3 -6.3 2.1 -0.5 0.6 -1.5 1.1 -2.4 1.1 -2.7 0 -8.6 6.8 -10.9 12.3 -3.9 9.4 -2.1 23.6 4 30.5 2.5 2.8 9.9 7.5 13.1 8.4 5.6 1.5 11.1 0.6 17.2 -2.4z"/>
  <path d="M267.6 1505.1 c0 -18.2 -0.2 -21.9 -1.9 -23.2 -1 -0.8 -3 -3.6 -4.5 -6.3 -1.5 -2.5 -3.6 -6.3 -4.7 -8.4 -1.1 -2.1 -3.1 -5 -4.5 -6.7 -1.5 -1.6 -2.5 -3.5 -2.5 -4.5 0 -0.8 -1.1 -2.5 -2.4 -3.8 -1.3 -1.2 -2.4 -2.8 -2.4 -3.4 0 -0.7 -1.3 -3 -3 -5.2 -1.7 -2.2 -3 -4.2 -3 -4.7 0 -0.4 -1.3 -2.8 -3 -5.2 -1.7 -2.4 -3 -4.8 -3 -5.3 0 -0.6 6.2 -1 13.8 -1 l13.8 0 6.2 11 c3.4 6.2 6.2 11.9 6.2 12.7 0 1 0.4 1.7 1 1.7 0.5 0 1.8 1.7 2.9 3.8 1.2 2.1 2.7 3.4 3.3 2.9 1.1 -0.6 11.3 -18.5 15.9 -27.8 l1.8 -3.6 13.7 -0.4 c12.7 -0.2 13.6 -0.2 13.6 2.1 0 1.3 -1.2 3.9 -2.8 5.8 -1.6 1.8 -3.3 4.2 -3.6 5.2 -0.7 1.8 -4 7 -8.6 14 -1.3 1.9 -3.6 5.4 -5.2 7.9 -1.5 2.3 -2.8 4.7 -2.8 5.2 0 0.5 -1.3 2.7 -3 4.8 -1.7 2.2 -3 4.5 -3 5.2 0 0.6 -1.1 2.2 -2.4 3.4 -2.3 2.1 -2.4 3.8 -2.4 23.9 l0 21.6 -11.5 0 -11.5 0 0 -21.7z"/>
  <path d="M642.9 1477.1 l0 -49.6 24.2 0 c14.8 0 26.4 0.6 29.9 1.5 7.9 1.9 16.5 8.4 20.5 15.3 3 5.2 3.3 6.8 3.3 17.8 0 10.9 -0.2 12.7 -3.1 17.6 -1.7 3 -4.7 6.8 -6.7 8.4 l-3.5 2.8 2.3 4.5 c1.2 2.4 3.9 6.8 5.8 9.8 1.9 3 4 6.3 4.5 7.3 0.5 1 2.1 3.6 3.6 5.9 5.4 8 4.6 8.6 -11.1 8.6 -13.7 0 -14 0 -15.1 -2.9 -0.6 -1.7 -3.3 -6.7 -6.1 -11 -2.7 -4.5 -4.8 -8.4 -4.8 -8.7 0 -0.4 -1.1 -2.2 -2.5 -4.1 -2.2 -3.1 -3.1 -3.5 -9.1 -3.5 l-6.5 0 0 15.1 0 15.1 -12.7 0 -12.7 0 0 -49.6z m51.2 -5.4 c2.5 -2.9 3.1 -5 3.3 -9.9 0 -5.3 -0.5 -6.8 -3.3 -9.4 -3.1 -2.8 -4.2 -3 -14.5 -3 l-11.3 0 0 13.4 0 13.4 11.4 -0.5 c10.8 -0.5 11.5 -0.6 14.4 -4z"/>
  <path d="M1109.1 1477.1 l0 -49.6 30.3 0 30.3 0 0 10.9 0 10.9 -17.6 0 -17.6 0 0 10.9 0 10.9 15.7 0 15.7 0 0 10.9 0 10.9 -15.7 0 -15.7 0 0 17 0 17 -12.7 0 -12.7 0 0 -49.6z"/>
  <path d="M1235 1488 l0 -38.7 -12.7 0 -12.7 0 0 -10.9 0 -10.9 36.9 0 36.9 0 0 10.9 0 10.9 -12.1 0 -12.1 0 0 38.7 0 38.7 -12.1 0 -12.1 0 0 -38.7z"/>
  <path d="M1480.8 1525.1 c0 -1 0.7 -3.3 1.7 -5.2 6.4 -12.6 14 -29.3 14 -30.5 0 -0.8 1.3 -3.5 3 -5.9 1.7 -2.4 3 -5.2 3 -6.1 0 -1 1 -3.8 2.3 -6.2 1.2 -2.4 3.9 -7.9 5.9 -12.2 1.9 -4.4 6.3 -13.4 9.6 -20.2 l5.8 -12.5 5 0 c5.6 0 5.2 -0.4 16.2 23.6 12.2 26.8 17 36.9 21.4 45.5 1.5 3.1 2.8 6.4 2.8 7.3 0 1 1.1 3 2.4 4.7 1.3 1.7 2.4 4 2.4 5.1 0 1.2 1.1 3.9 2.4 6.1 4.6 7.6 3.9 8.2 -9.4 8.2 l-11.7 0 -2.3 -4.5 c-1.2 -2.5 -2.7 -5.4 -3.1 -6.4 -0.7 -1.5 -4.5 -1.9 -20.9 -2.2 l-20 -0.2 -3.1 6.7 -3.3 6.7 -12 0 c-9.7 0 -12.1 -0.4 -12.1 -1.7z m61.7 -33.7 c0 -0.8 -1.3 -4.2 -2.9 -7.6 -1.6 -3.3 -4.1 -9 -5.7 -12.5 l-2.8 -6.3 -2.7 5.7 c-1.6 3.3 -2.8 6.4 -2.8 7.1 -0.1 0.8 -1.5 3.9 -3.1 6.7 -4.6 8.2 -4.5 8.4 8.5 8.4 8.4 0 11.5 -0.4 11.5 -1.5z"/>
  <path d="M1624.9 1477.1 l0 -49.6 24 0 c28.8 0.1 34.4 1.2 42.4 8 11.9 10.3 15.6 26.3 9.2 40.3 -1.8 4.1 -4.5 8.5 -5.8 9.6 -5.4 4.4 -5.8 5.7 -3.4 10 4.8 8.6 8 13.8 8.7 14.4 1.7 1.6 8.5 13.7 8.5 15.3 0 1.3 -2.5 1.7 -13.6 1.7 l-13.7 -0.1 -3.1 -5.1 c-1.8 -2.8 -4.1 -6.7 -5.2 -8.7 -1.1 -1.9 -3.4 -5.8 -5 -8.5 -1.7 -2.7 -3.4 -5.6 -3.8 -6.3 -0.5 -1 -3.4 -1.6 -7.9 -1.6 l-7.1 0 0 15.1 0 15.1 -12.1 0 -12.1 0 0 -49.6z m50.6 -5.4 c2.7 -2.9 3.3 -4.7 3.3 -9.9 0 -5.6 -0.5 -6.8 -3.5 -9.4 -3.3 -2.8 -4.5 -3 -14.9 -3 l-11.3 0 0 13.4 0 13.4 11.5 -0.5 c10.9 -0.5 11.7 -0.7 14.9 -4z"/>
  <path d="M1754.4 1477.1 l0 -49.6 30.9 0 30.9 0 0 10.9 0 10.9 -18.8 0 -18.8 0 0 7.3 0 7.3 17 0 17 0 0 11.5 0 11.5 -17 0 -17 0 0 9.1 0 9.1 19.4 0 19.4 0 0 10.9 0 10.9 -31.5 0 -31.5 0 0 -49.6z"/>
  <path d="M2204.8 1477.1 l0 -49.6 12.7 0 12.7 0 0 38.7 0 38.7 18.2 0 18.2 0 0 10.9 0 10.9 -30.9 0 -30.9 0 0 -49.6z"/>
  <path d="M2461.5 1488 l0 -38.7 -12.1 0 -12.1 0 0 -10.9 0 -10.9 36.3 0 36.3 0 0 10.9 0 10.9 -12.1 0 -12.1 0 0 38.7 0 38.7 -12.1 0 -12.1 0 0 -38.7z"/>
  <path d="M2547.5 1515.9 l0 -10.9 6.7 0 6.7 0 0 -28.5 0 -28.5 -6.1 0 -6.1 0 0 -10.3 0 -10.3 24.2 0 24.2 0 0 10.3 0 10.3 -6.1 0 -6.1 0 0 28.5 0 28.5 6.7 0 6.7 0 0 10.9 0 10.9 -25.4 0 -25.4 0 0 -10.9z"/>
  <path d="M2789.6 1476.5 l0 -50.2 4.4 0 c4 0 5.8 1.3 18.5 13.8 28.5 28.1 36.6 35.8 37 35.8 0.4 0 0.6 -10.9 0.6 -24.2 l0 -24.2 12.7 0 12.7 0 0 49.6 0 49.6 -4.4 0 c-4.1 0 -5.9 -1.6 -26.8 -22.4 -12.3 -12.3 -22.9 -22.4 -23.4 -22.4 -0.6 0 -1.9 -1.2 -2.9 -2.7 -1.8 -2.5 -1.9 -0.7 -1.9 22.4 l0 25.1 -13.3 0 -13.3 0 0 -50.2z"/>
  <path d="M969.7 1332.6 c-6.2 -1.9 -12.3 -7.7 -15.4 -14.3 l-2.7 -5.8 0 -157 0 -157.2 2.9 -6.1 c10.3 -21.8 39.1 -22.2 49.5 -0.6 2.5 5.3 2.7 7 3.3 57.9 l0.6 52.5 3.4 -3.1 c1.8 -1.7 3.9 -3.1 4.4 -3.1 0.6 0 2.3 -1 3.9 -2.2 6.1 -4.7 24.5 -13 38 -17.2 19 -5.9 55.6 -6.2 73.3 -0.5 5 1.6 9.7 2.9 10.5 2.9 4.7 0 37.2 17.7 39.5 21.4 0.5 0.8 1.7 1.6 2.4 1.6 0.8 0 2.4 1 3.4 2.2 1.1 1.1 5.4 5.4 9.7 9.6 9.9 9.6 12.6 12.6 13.6 15.3 0.4 1.1 1.2 2.1 1.7 2.1 0.6 0 2.3 2.4 4 5.4 1.7 3 3.4 5.4 3.9 5.4 0.6 0 1 0.8 1 1.9 0 1 1.3 3.9 3 6.3 1.7 2.4 3 5.1 3 5.9 0 0.8 1.1 3.4 2.4 5.8 1.3 2.4 2.9 6.3 3.5 8.8 0.6 2.4 2.1 7.5 3.3 11.1 1.8 5.8 2.2 14.2 2.5 67.2 0.4 33.2 0.2 62.7 -0.2 65.5 -0.8 6.2 -10 16.6 -15.7 17.9 -14 3.5 -22.8 1.6 -30.3 -6.8 -2.8 -3.1 -5.6 -7.3 -6.1 -9.1 -0.5 -1.9 -1.3 -29.3 -1.8 -60.9 -0.7 -52.7 -1.1 -58.2 -3.3 -65.6 -1.3 -4.5 -3.4 -9.6 -4.5 -11.1 -1.1 -1.7 -1.9 -3.6 -1.9 -4.4 0 -3.9 -18.5 -26.6 -21.7 -26.6 -0.7 0 -1.3 -0.5 -1.3 -1.2 0 -1.5 -11.1 -8.6 -18.9 -12.1 -11.9 -5.3 -23.4 -7.7 -36.8 -7.7 -18.3 0 -29.8 3.4 -50.2 14.8 -3.6 1.9 -18.8 16.8 -21.9 21.3 -6.2 9.1 -8.7 14.2 -12.5 23.7 -2.9 7.9 -2.9 7.9 -3.6 67.2 -0.7 55.9 -1 59.6 -3.3 64.3 -6.4 13.3 -20.2 19.1 -34.5 14.5z"/>
  <path d="M251.7 1332 c-5.6 -1.1 -11.4 -5.9 -15.9 -13 l-3.4 -5.4 0 -106.4 0 -106.5 -39 0 -39.1 0 -6.3 -3.4 c-10.5 -5.6 -14.9 -13 -14.8 -25.1 0 -10.8 6.5 -20.2 17.1 -24.8 5.7 -2.4 6.9 -2.4 111.4 -2.2 103.3 0.4 105.8 0.4 109.8 2.8 9.4 5.7 15.9 15.7 15.9 24.8 0 5.7 -3.6 14.5 -7.7 19.1 -1.5 1.6 -5.3 4.2 -8.7 5.8 -6.2 2.9 -6.5 2.9 -44.4 2.9 l-38.3 0 -0.4 105.7 -0.4 105.6 -3.1 6.1 c-4.4 8.6 -12 13.8 -21.2 14.4 -4 0.4 -9.1 0.1 -11.5 -0.4z"/>
  <path d="M532.7 1331.8 c-9.4 -0.8 -26 -5.3 -36 -9.7 -10.3 -4.5 -23.4 -11.4 -23.4 -12.3 0 -0.5 -0.6 -1 -1.2 -1 -1.9 0 -13.9 -9.2 -22 -16.8 -8.7 -8.2 -19.9 -22.6 -24.5 -31.7 -1.9 -3.6 -4.2 -8.1 -5.2 -10 -7 -13.3 -13.7 -42.5 -13.7 -60.1 0 -12.3 4 -36.2 7.7 -46.9 5.2 -14.5 10.5 -24.7 18.3 -35.2 2.7 -3.6 5.7 -7.7 6.7 -9.1 3.1 -4.4 19.3 -20.2 20.5 -20.2 0.7 0 1.7 -0.8 2.2 -1.8 2.1 -3.6 32.4 -21.2 36.6 -21.2 0.6 0 3.8 -1.1 6.9 -2.5 15.9 -6.7 47.1 -9.3 67.1 -5.6 5.7 1.1 11.6 2.2 13.3 2.4 8.1 1.5 40.7 15.6 43.6 18.9 0.4 0.4 2.8 2.4 5.4 4.4 10.3 7.6 22.4 19 22.4 20.9 0 0.8 0.5 1.5 1.2 1.5 0.6 0 3.6 3.4 6.7 7.6 2.9 4.1 5.8 8.1 6.3 8.7 0.6 0.7 2.2 3.5 3.6 6.3 1.5 2.8 3.1 6.1 3.9 7.3 8.8 16.8 13.2 31.8 14.2 49.6 1.1 18.5 0.2 24.2 -4.7 30.5 -2.1 2.7 -4.2 5 -4.7 5 -0.5 0 -2.9 1.3 -5.3 3 l-4.5 3 -104 0 -104 0 0.7 2.8 c1.2 3.6 8.5 18.4 10.5 20.9 4.2 5.4 20.1 21.3 22.8 22.9 18.4 10.4 38 16.3 54.2 16.3 6.4 0 10 1.7 15.7 7.5 6.3 6.2 7.5 9.3 7.5 18.9 0 7.1 -0.5 9.1 -3.3 13.2 -8.8 13 -15.5 14.9 -41.5 12.5z m101.8 -172.8 c-1.6 -5.3 -7.5 -17.1 -9.3 -18.6 -1 -0.7 -1.7 -2.1 -1.7 -2.8 0 -1.2 -15.9 -17.3 -21.3 -21.4 -2.4 -1.9 -10.7 -6.1 -21.4 -10.7 -13.6 -6.1 -43.8 -6.4 -58.1 -0.8 -4.1 1.6 -8.7 3.3 -10.2 3.6 -1.3 0.5 -3.3 1.6 -4 2.5 -0.8 1 -2.5 1.8 -3.6 1.8 -1.2 0 -2.4 0.4 -2.7 1 -0.1 0.5 -4 3.8 -8.5 7.4 -4.6 3.6 -8.2 7.3 -8.2 8.2 0 0.8 -0.5 1.6 -1.1 1.6 -1.1 0 -11 12.8 -11 14.3 0 0.5 -1.7 4.1 -3.6 8.1 -1.9 4 -3.6 7.6 -3.6 8.2 0 0.5 38.1 0.8 84.6 0.8 l84.8 0 -1 -3.3z"/>
  <path d="M839.7 1332 c-8.1 -0.8 -22.3 -5 -31.5 -9.2 -3.3 -1.6 -7.3 -3.1 -8.7 -3.5 -1.3 -0.5 -3.3 -1.6 -4 -2.5 -0.8 -1 -2.4 -1.8 -3.5 -1.8 -1.1 0 -3.4 -1.3 -5.2 -3 -1.8 -1.7 -3.8 -3 -4.2 -3 -3.4 0 -25.5 -20.9 -35.5 -33.4 -3.3 -4 -10.5 -16.2 -13.3 -22.3 -12.5 -26.6 -15.4 -41.3 -14 -72.5 0.7 -18.4 3.3 -29.8 10.2 -45.5 3.8 -8.6 13 -25.4 14.8 -27.2 0.4 -0.4 2.3 -2.8 4.2 -5.4 10.2 -13.7 31.7 -31.8 46.4 -39.2 1.1 -0.6 4.2 -2.2 6.9 -3.5 4.7 -2.4 10.4 -4.6 20.6 -8 11.9 -3.9 31 -5.8 55.7 -5.3 27.8 0.5 30.3 1.1 38.5 10.9 4.7 5.7 4.8 5.9 4.8 15.9 0.1 9.3 -0.1 10.4 -3.8 15.7 -2.2 3.1 -6.5 7.1 -9.7 9 l-5.7 3.4 -29.7 0.7 c-27.6 0.6 -30.3 0.8 -38.1 3.6 -10.2 3.6 -20.1 8.7 -22.3 11.3 -1 1.1 -2.3 1.9 -3 1.9 -1.6 0 -18.6 17.1 -20.8 20.8 -15.4 26.8 -19.6 52.2 -12.1 73.5 1.1 2.9 1.9 6.1 1.9 7 0 4.6 12 23 20.5 31.5 8.4 8.4 20.3 17.3 23.2 17.3 0.6 0 2.4 0.8 4 1.8 1.6 1.1 6.5 3 11.1 4.4 7 2.2 13.2 2.7 37.4 3.4 27.5 0.8 35.7 1.9 35.7 5 0 0.5 1.3 1.5 3 2.2 1.7 0.7 3 1.9 3 2.7 0 0.7 1.2 2.9 2.7 4.8 2.2 3 2.7 5.2 2.7 13.3 0 8.1 -0.5 10.3 -2.7 13.3 -1.5 1.9 -2.7 4.1 -2.7 4.8 0 0.6 -0.5 1.2 -1.2 1.2 -0.6 0 -2.4 1.2 -3.8 2.5 -1.5 1.5 -4.6 3.1 -7 3.6 -4.8 1.2 -53.6 1.1 -64.9 0z"/>
  <path d="M1317.3 1332.2 c-5.6 -1.1 -13.2 -7.5 -16.7 -14 l-3.3 -6.3 -0.4 -119.9 c-0.2 -119.5 -0.2 -119.9 2.3 -127.1 3.3 -9.3 6.4 -13 14.7 -16.8 12.6 -5.9 23.9 -2.8 34.3 9.7 7.4 8.7 14.7 16.6 19.1 20.8 1.8 1.8 3.3 3.6 3.3 4.1 0 0.6 1.8 2.8 4 5 2.2 2.1 8 8.5 13 14.2 5 5.7 10.8 12.1 13 14.3 2.2 2.2 4 4.4 4 4.8 0 0.5 1.5 2.3 3.4 4 1.8 1.8 5.6 5.8 8.5 9.1 2.9 3.3 6.4 7.3 8 9 1.6 1.7 7 8 12.2 13.9 10.7 12.2 13.7 15.6 20.3 22.4 2.4 2.5 4.5 5 4.5 5.4 0 0.5 1.5 2.3 3.4 4.1 4.1 4.1 9.6 10 20.8 23.1 5 5.7 10.8 12 13 14 2.2 2.2 4 4.5 4 5.2 0 0.7 0.6 1.3 1.2 1.3 0.8 0 1.2 -28.2 1.2 -82.1 0 -88.9 0 -88.6 6.5 -96.1 1.6 -1.7 5.9 -4.6 9.8 -6.4 5.6 -2.7 8 -3.1 12.6 -2.7 8.5 1.1 15.9 5.6 21.1 13 l4.5 6.4 0 124.3 0 124.3 -3 4.5 c-1.7 2.4 -3 4.8 -3 5.3 0 0.5 -2.2 2.7 -5 4.7 -5.6 4.2 -14.7 6.2 -22.5 4.6 -4.5 -0.8 -15.1 -7.6 -17 -10.9 -1.3 -2.1 -13 -15.4 -19.4 -21.9 -2.9 -2.9 -5.2 -5.6 -5.2 -5.8 0 -0.4 -1.2 -1.9 -2.7 -3.5 -5.1 -5.2 -11.4 -12.2 -20.3 -22.6 -5 -5.7 -10.8 -12.1 -13 -14.3 -2.2 -2.2 -4 -4.2 -4 -4.6 0 -0.4 -1.5 -2.2 -3.3 -4 -1.9 -1.8 -5.6 -5.8 -8.2 -9 -2.7 -3.3 -6.1 -7 -7.4 -8.5 -1.5 -1.5 -7.1 -7.9 -12.6 -14.2 -5.6 -6.3 -11.3 -12.7 -12.6 -14.2 -1.5 -1.3 -4.7 -5.1 -7.4 -8.2 -2.7 -3.1 -5.9 -6.9 -7.4 -8.4 -1.3 -1.3 -7 -7.7 -12.6 -14 -5.4 -6.3 -11 -12.6 -12.2 -13.9 -1.2 -1.3 -3.4 -3.8 -5 -5.4 l-2.8 -3 -0.6 84.1 c-0.6 84 -0.6 84.1 -3.3 88.9 -6.2 11 -17.8 15.7 -31.8 13.2z"/>
  <path d="M1709 1332 c-7.3 -1 -21.8 -5 -29.7 -8.4 -15.6 -6.5 -32.3 -15.9 -34.3 -19.3 -0.5 -0.8 -1.5 -1.6 -2.1 -1.6 -0.7 0 -2.2 -1 -3.5 -2.1 -13 -12.3 -18 -17.4 -20.1 -20.3 -1.3 -1.8 -3.3 -4.4 -4.2 -5.4 -8.5 -9.4 -17.6 -28.3 -23.5 -49 -5.6 -19.7 -5.3 -54.8 0.6 -73.9 4.2 -13.8 8.7 -25.2 11 -28.3 1.2 -1.6 2.2 -3.4 2.2 -4.1 0 -0.7 1.3 -3 3 -5.2 1.7 -2.2 3 -4.4 3 -4.8 0 -1.6 19.4 -24.7 20.7 -24.7 0.4 0 3.6 -2.7 7.3 -6.1 3.6 -3.3 7 -6.1 7.6 -6.1 0.7 0 2.3 -1 3.6 -2.3 1.5 -1.2 5.6 -3.8 9.2 -5.6 3.6 -1.8 8.6 -4.4 10.9 -5.4 7 -3.6 25.3 -9.2 37.2 -11.5 20.1 -3.9 50.6 -1 71.2 6.7 7.1 2.5 19.6 8.4 24.2 11.3 6.2 3.9 14 9.3 15.6 10.8 0.8 0.8 4.5 4 8 7 3.5 3 7 6.2 7.7 7 4.5 5.2 8.2 9.6 9.8 11.3 1 1.1 1.8 2.3 1.8 2.9 0 0.6 1 2.1 2.1 3.3 4.2 4.7 16.1 27.1 16.1 30.4 0 0.8 0.5 2.1 1 2.8 0.6 0.6 1.7 3.3 2.4 5.9 4.1 15 5.4 23.4 5.9 38.1 0.5 14.2 0.1 18.4 -2.5 31.8 -1.7 8.5 -4 17.1 -5 19 -1 1.9 -1.8 4.4 -1.8 5.4 0 1 -1.3 4 -3 6.7 -1.7 2.7 -3 5.3 -3 5.9 0 1.7 -4.1 8.6 -5.1 8.6 -0.6 0 -1 0.8 -1 1.8 0 5.8 -36.6 44.2 -42.1 44.2 -0.6 0 -1.7 0.7 -2.4 1.6 -2.2 2.5 -25.3 13.7 -32.1 15.5 -2.2 0.5 -7.6 2.1 -12.3 3.5 -6.5 1.9 -12.8 2.5 -27.8 3 -10.7 0.2 -22.6 0 -26.6 -0.5z m42.6 -55.7 c4.1 -1.5 8.2 -2.5 9 -2.5 2.2 0 16.6 -7.4 18.2 -9.2 0.7 -1 1.9 -1.7 2.5 -1.7 0.6 0 2.8 -1.6 5 -3.6 2.2 -1.9 4.2 -3.6 4.7 -3.6 1 0 14.3 -16.5 16.2 -20 4.2 -8 5.4 -10.4 8.1 -17.6 6.2 -16.1 5.4 -43.5 -1.5 -60.3 -3.9 -9.4 -13.9 -25.4 -16.5 -26.5 -0.8 -0.2 -1.8 -1.6 -2.2 -2.9 -0.4 -1.2 -1.5 -2.7 -2.4 -3 -1 -0.4 -4 -2.7 -6.7 -5.1 -6.1 -5.6 -16.2 -11 -28.7 -15.5 -9 -3 -11.1 -3.4 -27.8 -3.4 -14.9 0 -19.3 0.4 -24.2 2.3 -3.3 1.2 -6.5 2.7 -7.1 3.3 -0.7 0.5 -2.3 1 -3.5 1 -1.2 0 -3.8 1 -5.4 2.2 -1.8 1.1 -4.1 2.7 -5.2 3.3 -8.6 5.3 -12.6 8.7 -18.8 15.7 -4 4.5 -7.5 9.1 -8 10.3 -0.5 1.2 -1.3 2.5 -2.1 2.9 -2.4 1.6 -9.6 18.4 -11.7 28 -5 20.9 -1.2 46.3 9.3 63.6 0.6 1 2.3 4.1 3.6 7 1.3 2.8 2.9 5.1 3.5 5.1 0.6 0 4.8 3.6 9.4 8.2 4.5 4.5 10.3 9.2 12.7 10.5 2.4 1.3 4.5 2.8 4.5 3.3 0 0.6 0.8 1 1.8 1 1.1 0 3.1 0.8 4.6 1.8 3.1 1.9 11.1 4.7 21.4 7.4 9.3 2.3 27.6 1.5 37.2 -1.8z"/>
  <path d="M2019 1331.8 c-5.3 -0.6 -13 -2.2 -16.8 -3.5 -4 -1.5 -7.9 -2.5 -8.8 -2.5 -2.3 0 -29.1 -13.2 -30.8 -15.3 -0.7 -1 -1.9 -1.7 -2.5 -1.7 -1.3 0 -11.1 -7.9 -18.9 -15.1 -5.4 -5 -19.6 -21.7 -19.6 -23 0 -0.4 -1 -1.8 -2.3 -3.1 -2.7 -2.9 -13.4 -24.5 -14.8 -29.5 -0.5 -1.9 -1.9 -6.9 -3.3 -10.9 -4.5 -13.3 -5.1 -25.5 -5.1 -93.4 0 -70.7 0.1 -72 6.5 -79.4 3.9 -4.4 15 -9.4 20.8 -9.4 9 0.1 18.5 5.9 24.2 14.8 l2.8 4.4 0.4 71.3 c0.4 65.4 0.6 71.8 2.7 77.9 5.4 16.1 12.6 27.8 24 39.2 16.1 16.1 32.8 23.4 59.8 26.2 12.1 1.2 14.5 2.2 19.9 7.6 6.9 7 8.5 10.5 8.5 19.7 0 6.8 -0.5 8.7 -3 12.1 -1.7 2.2 -3 4.6 -3 5.3 0 0.7 -1.3 1.9 -3 2.7 -1.7 0.7 -3 1.7 -3 2.2 0 3.5 -17.8 5.4 -34.5 3.6z"/>
  <path d="M2201.2 1332 c-4.4 -0.6 -11.3 -2.2 -15.4 -3.6 -4.1 -1.3 -8.1 -2.5 -9 -2.5 -0.7 0 -4 -1.3 -7.4 -3 -3.3 -1.7 -6.5 -3 -7.3 -3 -0.7 0 -5.3 -2.4 -10.4 -5.4 -5 -3 -9.4 -5.4 -10 -5.4 -0.5 0 -1.5 -0.7 -1.9 -1.6 -0.5 -0.7 -3 -3 -5.4 -4.8 -21.4 -15.9 -39 -40.7 -47.6 -66.8 -12.1 -36.9 -8.8 -78.9 8.8 -112.6 7.1 -13.8 11.5 -19.5 25.9 -34.5 5.1 -5.3 9.9 -9.7 10.5 -9.7 0.7 0 1.7 -0.7 2.2 -1.6 1.5 -2.3 13.4 -10.5 15.4 -10.5 1 0 1.9 -0.5 2.2 -1 0.4 -1.2 18 -9.9 19.7 -9.9 0.6 0 4.7 -1.3 9.1 -2.9 11.7 -4.4 24.1 -6.2 42.4 -6.2 16.3 0 30.3 1.7 39.4 4.8 2.7 0.8 6.8 2.3 9.1 3.1 6.4 2.2 27.8 13 32.7 16.3 9.2 6.5 25.4 21.2 25.4 23 0 0.6 1 1.7 2.2 2.5 1.3 0.7 4.4 4.5 6.9 8.5 2.5 3.9 5 7.3 5.4 7.6 0.4 0.4 1.9 2.9 3.3 5.7 1.5 2.8 3.1 6.1 3.9 7.3 10 19.1 14.7 39.1 14.5 63.9 0 25.1 -4.7 45.4 -15.1 64.8 -0.8 1.7 -2.8 5.3 -4.1 8.1 -1.5 2.8 -3.4 5.7 -4.4 6.5 -1 0.7 -1.7 1.8 -1.7 2.4 0 1.2 -1.2 2.7 -10 13.1 -5.1 5.9 -9.7 10.2 -23.7 21.9 -1.6 1.3 -3.6 2.4 -4.6 2.4 -0.8 0 -1.6 0.5 -1.6 1.1 0 1.2 -29.3 15.9 -31.7 15.9 -0.8 0 -5.9 1.5 -11.1 3.1 -8.2 2.5 -12.5 3 -29.1 3.5 -10.8 0.2 -23 0 -27.4 -0.5z m33.9 -53.4 c8.8 -1.9 25.3 -7.4 26.2 -8.6 0.4 -0.6 1.6 -1.1 2.7 -1.1 1.2 0 3.5 -1.3 5.3 -3 1.8 -1.7 3.9 -3 4.6 -3 0.6 0 2.4 -1.3 3.9 -3 1.5 -1.7 3 -3 3.5 -3 1.3 0 8.4 -7.3 8.4 -8.5 0 -0.6 1.1 -1.7 2.4 -2.4 1.3 -0.7 2.4 -2.1 2.4 -2.9 0 -1 0.8 -2.3 1.9 -3.3 2.9 -2.3 8.8 -14.9 12.3 -25.8 2.7 -8.2 3.1 -12.1 3.1 -24.3 0 -12.2 -0.5 -16.1 -3.1 -24.3 -5.9 -18.6 -16 -33.4 -30.6 -45 -9.4 -7.6 -14.9 -10.5 -28.5 -15.6 -8.5 -3 -10.3 -3.3 -27.2 -3.1 -13.2 0 -19.6 0.6 -23.6 1.9 -12.6 4.4 -16.5 5.9 -18.3 7.6 -1 1 -2.8 1.7 -3.9 1.7 -1.1 0 -2.1 0.5 -2.1 1 0 0.5 -1.7 1.9 -3.8 3.1 -7.9 4.6 -20.8 19.6 -27.4 31.6 -1.5 2.7 -4.1 9.2 -5.8 14.5 -2.8 8.6 -3.1 11.6 -3.3 26.9 0 15.6 0.4 18.2 3.4 27.2 1.8 5.6 3.8 10.7 4.2 11.3 0.5 0.7 2.5 4.4 4.6 8.1 2.1 4 7.3 10.3 11.7 14.5 4.5 4.2 9 8.6 10 9.8 1 1.1 2.5 2.1 3.3 2.1 0.7 0 1.9 0.7 2.7 1.6 3.3 3.9 25.8 12.8 36.6 14.5 6.1 1 18.9 0.7 24.2 -0.4z"/>
  <path d="M2506.3 1331.8 c-9 -0.8 -25.5 -5.4 -33.9 -9.2 -11.3 -5.1 -21.9 -10.7 -23.1 -12.1 -0.7 -1 -1.8 -1.7 -2.4 -1.7 -1.2 0 -11.6 -7.7 -14.7 -10.9 -1.2 -1.2 -4 -3.8 -6.4 -5.4 -2.3 -1.8 -4.2 -4 -4.2 -4.8 0 -0.8 -0.7 -1.8 -1.6 -2.2 -2.9 -1.1 -16.3 -20 -20.5 -28.7 -1.3 -3 -3.5 -6.9 -4.7 -8.7 -1.3 -1.7 -2.3 -4 -2.3 -5 0 -1.1 -1.1 -4.4 -2.4 -7.5 -7.5 -17.6 -10 -49.6 -5.6 -72 3.1 -16.2 10.9 -36.6 17.8 -47.2 10.9 -17 9.2 -14.8 22.5 -28.2 13.1 -13 15.6 -15.4 16.5 -15.4 0.4 0 3.4 -1.9 6.9 -4.2 13.1 -8.8 31.5 -16.5 48.6 -20.2 9.8 -2.2 16.3 -2.8 29.5 -2.8 24.5 0.1 40.6 4.1 65.4 16.5 16.7 8.4 22.3 12.7 26.5 20.6 4.6 8.2 4.7 15.3 0.7 23.5 -6.8 13.9 -22.4 20 -35.7 13.9 -3.3 -1.5 -6.7 -3.5 -7.6 -4.4 -2.5 -2.7 -10.5 -6.5 -21.4 -10.5 -9.1 -3.4 -10.8 -3.5 -28.5 -3.6 -17.7 0 -19.3 0.1 -27.2 3.3 -11.9 4.6 -20.5 9 -23.4 11.7 -1.5 1.2 -3.1 2.3 -3.8 2.3 -0.7 0 -2.2 1.3 -3.3 3 -1.1 1.7 -2.7 3 -3.6 3 -0.8 0 -2.2 1 -2.8 2.2 -0.7 1.3 -2.9 4.1 -5 6.3 -2.1 2.3 -4.8 6.1 -6.2 8.4 -1.3 2.4 -3.1 5.7 -4.1 7.4 -5.1 9 -7.9 19.4 -8.6 32.2 -1.1 20.2 1.2 33.9 8.1 46.9 0.7 1.2 2.3 4.4 3.6 6.9 1.3 2.5 3.3 5.3 4.2 6.2 1 0.7 1.7 1.8 1.7 2.4 0 0.8 7.9 8.6 17 16.8 5.6 5.1 19 11.4 31.5 14.9 12.8 3.5 31 3.4 44.8 -0.4 5.7 -1.5 11.4 -3.5 12.7 -4.4 1.3 -1 3 -1.7 3.8 -1.7 2.4 0 16.2 -9.8 22.9 -16.3 7.9 -7.6 21.1 -28 21.2 -32.3 0 -0.6 -10 -1 -22.3 -1 -24.2 0 -28 -0.7 -34.6 -6.4 -15 -13 -11.7 -36.4 6.4 -45.8 4.2 -2.3 6.9 -2.4 46.6 -2.1 l42 0.4 6.1 3.8 c3.8 2.2 7.9 6.3 10.9 10.5 l4.7 6.9 -0.1 12.7 c-0.1 9.6 -0.8 15.1 -3.3 23.5 -1.7 5.9 -3.1 11.4 -3.1 12.1 0 4 -16.6 34.9 -21.4 39.8 -0.8 0.8 -1.6 2.1 -1.6 2.5 0 1.2 -24.3 25.5 -25.5 25.5 -0.5 0 -1.7 0.7 -2.5 1.6 -5.2 5.1 -35.7 21.4 -40.1 21.4 -0.8 0 -5.6 1.3 -10.7 3 -7.5 2.3 -12.6 3 -27.2 3.5 -9.9 0.2 -22.2 0.1 -27.1 -0.5z"/>
  <path d="M2841.1 1332.1 c-4.5 -1.1 -11.1 -6.1 -15.1 -11.4 l-3 -4 -0.6 -38.1 -0.6 -38.1 -5.4 -0.7 c-3 -0.5 -8.1 -1.9 -11.3 -3.4 -3.3 -1.5 -6.7 -2.5 -7.6 -2.5 -1.6 0 -17.1 -7.1 -21.7 -10 -1.2 -0.7 -5.3 -3.6 -8.8 -6.3 -3.6 -2.7 -7.7 -5.7 -9.1 -6.7 -4 -2.8 -19.3 -18.6 -23.2 -24.2 -1.9 -2.7 -4.8 -6.5 -6.3 -8.4 -1.6 -1.9 -2.8 -4.4 -2.8 -5.3 0 -1 -0.5 -2.1 -1 -2.3 -1.7 -0.6 -9.6 -18 -12.7 -28.2 -4.5 -14.5 -5.9 -25.5 -6.5 -50.2 -0.5 -19.9 -0.4 -23 1.7 -28 3 -7.7 7.5 -12.5 14.4 -15.6 13.2 -6.1 26.8 -1.6 35 11.5 2.1 3.1 2.4 7.1 3.1 29.9 1 28.5 3 39.8 9.2 49.6 1.6 2.5 2.8 5 2.8 5.6 0 1.3 12.7 17.2 16.8 20.8 1.8 1.7 5.3 4.4 7.7 6.1 2.4 1.7 4.5 3.4 4.5 4 0 0.5 0.8 0.8 1.8 0.8 1.1 0 3.1 0.7 4.6 1.7 1.5 1 6.8 3.4 11.7 5.4 15.7 6.2 46 6.3 60.1 0.1 9.8 -4.2 19.3 -8.8 19.9 -9.6 0.4 -0.5 2.8 -2.4 5.4 -4.4 13.9 -10.4 23.9 -24.7 30.4 -43.8 3 -8.7 3.4 -11.4 4 -36.1 l0.7 -26.8 4.4 -5.9 c7.7 -11 20.8 -14.7 33.2 -9.2 12.1 5.2 16.3 14.9 16.3 37.7 -0.1 29.4 -4.1 52.5 -12.2 70.2 -2.4 5 -3.4 7.1 -7.5 14.9 -6.2 11.7 -22.9 31.7 -32.4 39 -8.7 6.7 -16.6 12.2 -19.3 13.8 -11 6.4 -34.3 15.4 -41.8 16.1 l-3.6 0.4 -0.6 38.4 c-0.6 37.7 -0.6 38.4 -3.3 41.2 -1.6 1.7 -2.8 3.4 -2.8 4.1 -0.1 0.6 -2.4 2.5 -5.3 4.5 -5.6 3.5 -16 5.1 -23.1 3.5z"/>
  <path d="M177.4 905.8 c-16.1 -2.4 -31.5 -14.4 -39.5 -31 l-4.1 -8.5 0 -239.1 0 -239.1 3.9 -7.9 c3.3 -6.7 11 -16 19.1 -22.8 3.4 -2.9 18.2 -8.6 24.5 -9.4 3.4 -0.4 8.7 -0.1 12 0.5 5.4 1.2 17.7 6.4 24.1 10.3 4.4 2.5 13.9 13.7 17.2 19.7 6.1 11.4 6.4 17.1 6.4 111.5 l0 87.4 31.2 0.4 c17.1 0.2 31.7 0.2 32.4 0 0.7 -0.1 2.4 -2.7 4 -5.4 1.5 -2.8 3.3 -6.2 4.1 -7.5 0.8 -1.3 3 -5.1 4.8 -8.5 1.9 -3.3 5.2 -9.1 7.5 -12.7 2.2 -3.6 5.3 -9 6.8 -11.7 1.5 -2.9 3.1 -5.2 3.8 -5.2 0.5 0 1 -1.1 1 -2.3 0 -1.3 0.6 -2.8 1.2 -3.1 0.7 -0.5 2.7 -3.3 4.2 -6.4 5.4 -10.2 9.4 -16.6 10.4 -17 0.6 -0.2 1.1 -1.5 1.1 -2.7 0 -1.1 0.7 -2.8 1.7 -3.5 1 -0.8 2.9 -3.8 4.2 -6.5 4.1 -8.1 8.8 -16 9.9 -16.3 0.6 -0.2 1.1 -1.3 1.1 -2.4 0 -1 0.7 -2.8 1.7 -3.8 1.7 -1.9 5.4 -8.2 10.7 -17.9 1.5 -2.9 3.1 -5.2 3.6 -5.2 0.5 0 1 -0.8 1 -1.9 0 -1 1.3 -3.6 3 -5.8 1.7 -2.2 3 -4.5 3 -5 0 -1 2.8 -5.6 8.7 -14.2 1.2 -1.8 2.2 -4.1 2.2 -5 0 -1 0.7 -2.4 1.7 -3.1 1 -0.8 2.9 -3.8 4.2 -6.5 1.5 -2.8 4.2 -7.5 6.2 -10.5 1.9 -3 5.1 -8.2 7 -11.6 3.6 -6.1 12.3 -16.2 13.9 -16.2 0.6 0 2.1 -1.1 3.5 -2.3 1.3 -1.3 6.7 -3.9 11.7 -5.8 23.4 -8.5 50.4 0.8 63.3 22 4.4 7 8.2 20.3 8.2 27.7 0 7.9 -3.8 20.3 -8.7 29.7 -2.1 3.8 -5.4 9.8 -7.4 13.4 -1.9 3.6 -4 6.9 -4.6 7 -0.6 0.2 -1.1 1.2 -1.1 2.3 0 1 -1.3 3.5 -2.9 5.6 -1.6 2.2 -3.3 5.1 -3.8 6.7 -0.4 1.5 -1.2 2.7 -1.8 2.7 -0.6 0 -1.5 1.2 -1.8 2.8 -0.5 1.5 -2.2 4.4 -3.8 6.5 -1.6 2.1 -2.9 4.5 -2.9 5.2 0 0.7 -1.2 3.1 -2.8 5.2 -3.3 4.7 -4.8 7.1 -8.7 14.2 -1.7 3 -4.7 8.2 -6.8 11.5 -1.9 3.4 -3.9 6.9 -4.4 7.9 -0.4 1 -1.5 2.7 -2.3 3.6 -0.7 1 -2.5 3.8 -3.9 6.1 -1.3 2.3 -5.2 9.2 -8.7 15.1 -3.5 6.1 -7.4 12.8 -8.7 15.1 -1.3 2.3 -3 5.1 -3.9 6.1 -0.8 1 -2.1 3.1 -2.9 4.8 -0.7 1.7 -2.8 5.2 -4.4 7.9 -1.7 2.7 -4.6 7.7 -6.7 11.1 l-3.5 6.4 4.4 1.9 c16.1 6.8 29.3 13.6 33.1 17 1 1 2.4 1.7 3 1.7 0.7 0 2.3 0.8 3.5 1.8 5.2 3.9 11 7.9 13.3 9 1.3 0.6 3.5 2.2 4.7 3.6 1.3 1.3 2.8 2.5 3.3 2.5 0.5 0 2.3 1.2 3.9 2.8 1.5 1.5 6.1 5.4 9.9 9 14.9 13 26.8 25.5 37.4 39.7 1 1.3 3.1 4.1 4.7 6.1 1.6 2.1 3.9 5.4 5.1 7.6 1.3 2.1 2.8 3.9 3.3 3.9 0.5 0 1 1 1 2.3 0 1.2 0.8 2.9 1.9 3.9 1.1 0.8 2.8 3.3 3.9 5.3 1.1 2.2 3.5 6.5 5.2 9.8 1.7 3.3 3.6 7 4.4 8.4 2.9 5.4 7.6 16.1 7.6 17 0 0.5 1.3 3.8 2.8 7.1 2.8 5.8 6.8 18.3 11 33.5 1.1 3.8 2.5 10.8 3.1 15.7 0.6 5 1.8 12.8 2.4 17.4 2.2 14.8 1.9 34.1 -0.5 42.4 -4.7 15.3 -15.3 27.7 -29.2 34.4 -7.7 3.8 -9.1 4 -21.1 4.1 -11.4 0 -13.8 -0.4 -20.7 -3.3 -4.4 -1.9 -9 -4.4 -10.4 -5.7 -1.3 -1.2 -2.9 -2.3 -3.3 -2.3 -1.2 0 -9.3 -8.1 -9.3 -9.3 0 -0.4 -1 -1.9 -2.2 -3.3 -5.2 -5.8 -7.9 -15.3 -8.8 -31.6 -0.6 -8.6 -1.8 -19.5 -2.9 -24.2 -1.1 -4.6 -2.4 -10.9 -3 -13.9 -1.3 -6.2 -4 -14 -5.2 -15.3 -0.5 -0.5 -0.8 -1.8 -0.8 -3 0 -1.1 -1.2 -4.5 -2.5 -7.4 -1.5 -2.8 -3.5 -7 -4.6 -9.1 -1 -2.2 -2.3 -4 -2.8 -4 -0.6 0 -1 -0.7 -1 -1.7 0 -1.5 -5.8 -10.9 -9.4 -15.4 -0.7 -1 -4.1 -5 -7.3 -9 -7 -8.5 -24.9 -26 -26.8 -26 -0.6 0 -1.7 -0.7 -2.2 -1.6 -2.9 -4.6 -26.4 -17.9 -41.5 -23.5 -26.3 -9.7 -34.5 -10.7 -89 -10.7 l-44.8 0 -0.7 89 c-0.4 48.9 -1.1 90.7 -1.7 92.6 -0.5 2.1 -2.3 5.7 -3.9 8.1 -1.5 2.5 -2.8 4.8 -2.8 5.2 0 1.7 -10.4 12.3 -16.6 17.1 -8.6 6.4 -25.2 9.8 -38.5 7.9z"/>
  <path d="M917.2 905.8 c-18.6 -1.2 -48.1 -7.6 -63 -13.7 -3.3 -1.3 -7.6 -2.8 -9.7 -3.4 -6.7 -1.7 -43 -19.3 -43 -20.8 0 -0.4 -1.2 -1.2 -2.7 -1.6 -1.6 -0.5 -4.5 -2.2 -6.7 -3.8 -2.1 -1.6 -4.4 -2.9 -5 -2.9 -0.6 0 -2.1 -1.1 -3.3 -2.4 -1.2 -1.3 -2.9 -2.4 -3.8 -2.4 -0.8 0 -1.7 -0.4 -1.9 -1 -0.1 -0.5 -2.8 -2.8 -5.8 -5.1 -3 -2.3 -6.1 -4.7 -6.8 -5.4 -0.8 -0.6 -4 -3.4 -7.3 -6.1 -7.4 -6.2 -25.9 -24.8 -25.9 -26 0 -0.5 -1.3 -1.8 -3 -2.9 -1.7 -1.1 -3 -2.8 -3 -3.8 0 -1 -0.5 -1.8 -1.1 -1.8 -0.7 0 -3.8 -3.6 -7 -8.1 -3.1 -4.6 -6.4 -9 -7.3 -9.8 -0.8 -0.8 -1.6 -2.3 -1.6 -3.3 0 -0.8 -0.5 -1.8 -1.1 -2.1 -3 -1.1 -28 -50 -28 -54.8 0 -1 -1.3 -5.2 -2.9 -9.3 -4.7 -12.7 -8.1 -27.6 -12.2 -54.5 -2.3 -15 -2.3 -47.7 -0.1 -62.1 1 -5.9 2.3 -15 3.1 -20 0.7 -5 2.4 -12.8 3.6 -17.6 1.2 -4.6 2.8 -10.7 3.4 -13.3 3.3 -13.7 18.5 -49 25.1 -58.1 1.5 -1.9 2.9 -4.5 3.3 -5.6 0.4 -1 2.8 -5.1 5.4 -9 2.5 -3.8 5.2 -8 5.9 -9.2 0.7 -1.3 2.9 -4.1 4.8 -6.3 1.9 -2.1 5.6 -6.5 8.2 -9.9 2.5 -3.3 6.9 -8.2 9.8 -11 2.8 -2.8 5.4 -5.8 5.8 -7 0.5 -1.1 1.7 -2.3 2.8 -2.8 1.1 -0.4 4.5 -3.3 7.6 -6.4 3 -3.1 8.4 -7.7 11.6 -10.4 3.4 -2.5 6.3 -5.1 6.4 -5.6 0.2 -0.6 1.1 -1 1.9 -1 0.8 0 2.8 -1.3 4.4 -3 1.6 -1.7 3.4 -3 4.1 -3 0.7 0 2.8 -1.3 4.6 -3 1.8 -1.7 3.9 -3 4.5 -3 0.7 0 3.1 -1.2 5.3 -2.8 5.7 -3.6 11 -6.7 19 -10.5 13.7 -6.7 20.2 -9.7 21.4 -9.7 0.6 0 3 -0.8 5.2 -1.9 2.2 -1.1 5.6 -2.4 7.7 -3 2.1 -0.5 7 -2.1 11 -3.4 34.7 -11.7 78.9 -15.9 116.2 -10.7 16.3 2.3 18.3 2.7 36.3 7.5 15.4 4.1 38.7 12.5 43.7 15.7 1.6 1 3.4 1.8 4.1 1.8 0.7 0 3.4 1.3 6.1 3 2.7 1.7 5.6 3 6.5 3 0.8 0 2.3 0.7 3 1.7 0.8 1 3.8 2.9 6.5 4.2 6.3 3.1 8.2 4.4 16.3 10.4 3.6 2.7 7.5 5.4 8.6 6.1 1.1 0.7 2.2 1.5 2.5 1.8 0.4 0.4 3.9 3.3 7.9 6.7 14.9 12.2 32 30 43.6 45.2 0.7 0.8 2.1 2.5 3.1 3.6 1.1 1.1 4 5.4 6.5 9.6 2.5 4.2 5.3 8.2 6.2 9 1 0.7 1.7 2.4 1.7 3.6 0 1.3 0.5 2.3 1 2.3 1 0 13 23.1 17.9 34.5 3.4 7.7 9.1 23.9 10.2 28.5 0.5 2.3 1.8 7.5 2.8 11.5 2.4 9.2 5.1 23.5 6.9 37.4 1.9 14.5 0.8 57.4 -1.8 70.3 -1 5.3 -2.4 12.7 -3 16.3 -0.5 3.6 -1.9 9.7 -3 13.3 -1.1 3.6 -2.7 8.8 -3.4 11.5 -0.7 2.7 -2.1 6.2 -2.9 7.9 -0.8 1.7 -1.6 4.1 -1.6 5.4 0 1.5 -0.5 3 -1 3.6 -0.6 0.7 -2.3 4.2 -3.9 7.9 -4.8 11.7 -14.7 31.4 -16.5 32.8 -1 0.7 -1.7 2.2 -1.7 3.1 0 0.8 -0.6 2.3 -1.2 3.1 -2.4 2.8 -9.7 14.4 -9.7 15.5 0 0.6 -0.5 1.1 -1.1 1.1 -0.6 0 -2.3 1.8 -3.6 4 -1.3 2.1 -3.9 5.6 -5.6 7.5 -10.2 11.9 -12.8 14.9 -20.1 22.2 -4.4 4.5 -10.5 10.3 -13.7 13 -3 2.7 -6.8 5.9 -8.4 7.3 -1.6 1.3 -4.8 3.8 -7.3 5.4 -2.4 1.7 -4.5 3.4 -4.5 4 0 0.5 -0.7 0.8 -1.6 0.8 -1 0 -2.7 1.1 -3.9 2.4 -1.2 1.3 -2.7 2.4 -3.3 2.4 -0.6 0 -2.9 1.3 -5 2.9 -2.2 1.6 -5.1 3.3 -6.5 3.8 -1.6 0.4 -2.8 1.2 -2.8 1.7 0 0.6 -1.8 1.7 -3.9 2.5 -2.2 1 -4.8 2.3 -5.8 3.1 -1 0.8 -6.4 3.5 -12.1 5.9 -5.7 2.4 -12.3 5.4 -14.9 6.8 -2.7 1.2 -5.4 2.3 -6.3 2.3 -0.8 0 -4 1.1 -7.1 2.4 -9.1 4.1 -24 7.9 -46.1 12 -15.1 2.8 -47.6 4 -69 2.7z m52.1 -107.3 c10.8 -2.1 30 -7.6 38.1 -11.1 8.7 -3.6 24.2 -11.9 24.2 -12.7 0 -0.6 0.5 -1 1.2 -1 1.3 0 17.6 -11.3 21.2 -14.7 1.3 -1.3 5.8 -5.6 10 -9.6 4.1 -3.9 7.5 -7.6 7.5 -8.2 0 -0.7 0.7 -1.5 1.7 -1.8 1.5 -0.6 15.3 -19.5 15.3 -20.9 0 -0.4 1.3 -2.4 3 -4.6 1.7 -2.2 3 -4.6 3 -5.4 0 -0.7 1.3 -3.5 3 -6.2 1.7 -2.7 3 -5.3 3 -5.8 0 -0.6 1 -3.8 2.3 -7 19 -49.5 13.4 -108.6 -14.3 -150.5 -2.4 -3.5 -5 -7.5 -5.7 -8.7 -0.7 -1.2 -2.2 -3.3 -3.3 -4.5 -1.2 -1.2 -2.1 -2.8 -2.1 -3.4 0 -1.2 -29.7 -30.8 -30.9 -30.8 -0.7 0 -3.3 -1.8 -9.9 -7.3 -3.8 -3.1 -27.8 -15.6 -30.1 -15.7 -0.6 0 -3.4 -1.1 -6.1 -2.3 -2.7 -1.3 -6.5 -2.8 -8.5 -3.1 -1.9 -0.5 -7.9 -1.8 -13.2 -3.1 -21.1 -5.1 -55.5 -5 -77.5 0.2 -11.7 2.8 -23 6.7 -32.7 11.5 -3.4 1.6 -6.5 2.9 -7 2.9 -0.6 0 -2.8 1.3 -5 3 -2.2 1.7 -4.6 3 -5.3 3 -0.7 0 -2.1 0.7 -2.9 1.6 -0.8 0.8 -4.6 3.6 -8.2 6.2 -7.4 5.3 -8.6 6.3 -18.2 15.5 -13.2 12.6 -25.7 29.7 -33.8 46.4 -6.7 13.6 -9.8 20.8 -9.8 22.3 0 0.7 -1.3 5.6 -2.9 10.8 -7.6 24.6 -7.6 64.9 0 90.4 1.6 5.3 2.9 10 2.9 10.5 0 0.8 9.1 20.7 13.1 28.6 1.1 2.1 2.4 3.9 2.9 3.9 0.6 0 1 0.8 1 1.8 0 3 3.6 9.2 4.8 8.5 0.7 -0.5 0.8 0.1 0.4 1.3 -0.5 1.3 -0.4 1.8 0.5 1.3 0.8 -0.5 1.1 0 0.7 1.3 -0.2 1.2 0.6 3.1 2.2 4.5 l2.8 2.4 -2.1 -3.6 c-1.6 -2.5 -0.7 -2.1 2.4 1.7 7.6 9 19.6 20.7 20.9 20.7 0.7 0 1.6 0.8 2.1 1.8 0.4 1.1 4.2 4.5 8.7 7.6 4.4 3 8.2 6.1 8.4 6.5 0.2 0.6 1.1 1 1.9 1 1 0 2.9 1 4.5 2.3 3.3 2.5 16.3 9.4 23.6 12.3 29.8 12.2 62.2 15.9 91.9 10.2z"/>
  <path d="M1495.3 903.7 c-5 -0.8 -12.7 -2.2 -17.1 -2.9 -4.5 -0.6 -9.7 -1.7 -11.5 -2.4 -1.9 -0.7 -6.5 -2.1 -10.2 -3 -6.5 -1.6 -24.8 -7.9 -29.7 -10.2 -1.3 -0.7 -6.3 -2.8 -11 -4.8 -4.7 -2.1 -12.1 -5.7 -16.3 -8.1 -4.2 -2.4 -9.7 -5.4 -12.1 -6.7 -2.3 -1.2 -5 -3 -5.9 -4 -0.8 -1.1 -1.9 -1.9 -2.4 -1.9 -1.6 0 -14.5 -8.7 -14.5 -9.8 0 -0.6 -0.7 -1.1 -1.6 -1.1 -1 0 -2.9 -1.3 -4.5 -3 -1.6 -1.7 -3.1 -3 -3.6 -3 -1.1 0 -16 -13.4 -24 -21.7 -9 -9.2 -24.5 -27.5 -24.5 -28.9 0 -0.7 -0.5 -1.5 -1.1 -1.7 -1.3 -0.5 -6.8 -8.7 -14.9 -22.4 -6.2 -10.3 -17.9 -35.1 -17.9 -37.8 0 -1.1 -0.5 -2.5 -1.1 -3.1 -2.4 -2.8 -10.3 -29.4 -13.3 -45.4 -9.4 -49.5 -5.1 -106.3 11.6 -150.1 4.6 -12 13 -29.9 18.4 -39.5 4.4 -7.7 9.9 -16.7 10.9 -17.4 0.4 -0.4 2.4 -3 4.4 -6.1 2.1 -2.9 4.5 -6.5 5.7 -7.9 1.1 -1.3 4 -4.8 6.4 -7.9 10.9 -13.4 22.9 -26.3 31.1 -33.3 9.9 -8.4 16.8 -13.9 22.2 -17.6 3.3 -2.3 6.9 -5.1 8 -6.1 1.2 -1 5.3 -3.4 9.2 -5.3 3.9 -1.9 7.3 -3.9 7.6 -4.4 0.6 -0.7 27.4 -13.9 35.2 -17.3 14.5 -6.3 43.7 -14.4 62.2 -17.4 18.4 -3 57.4 -3 77.5 0 15.7 2.4 34.4 6.7 46 10.7 4 1.3 9 2.9 11 3.4 2.2 0.6 5.6 1.9 7.7 3 2.2 1.1 4.6 1.9 5.3 1.9 0.7 0 4.6 1.7 8.6 3.6 4 2.1 7.9 3.6 8.7 3.6 0.8 0 1.6 0.5 1.6 1.1 0 0.5 2.5 2.2 5.8 3.6 6.1 2.8 14.4 7.6 16.8 9.7 0.8 0.7 1.9 1.3 2.5 1.3 0.6 0 2.4 1.1 4 2.4 1.5 1.5 4.6 3.6 6.8 5 2.2 1.3 4 3 4 3.6 0 0.6 0.6 1.1 1.3 1.1 0.7 0 4.4 2.5 8.1 5.7 8.2 6.8 36.6 35 36.6 36.3 0 0.5 1.1 1.9 2.4 3.4 4.5 4.5 15.3 19.1 20 27.2 0.7 1.2 1.9 2.9 2.7 3.8 3.1 4 20.8 38.1 20.9 40.6 0 0.6 1.3 4.1 3 7.5 1.7 3.5 3 7 3 8 0 0.8 0.8 3.8 2.1 6.3 1.1 2.7 2.3 6.9 2.8 9.6 0.5 2.7 2.1 9.4 3.4 15.1 3.3 13.1 5.1 28 5.9 47.2 0.6 13.1 0.4 16.3 -1.9 24.2 -1.3 5 -3.6 10.5 -5 12.3 -1.3 1.8 -2.4 3.8 -2.4 4.2 0 1.3 -12 13.7 -13.2 13.7 -0.5 0 -1.9 1.1 -3.1 2.4 -1.2 1.3 -2.8 2.4 -3.6 2.4 -0.7 0 -3.8 1.2 -6.8 2.8 l-5.3 2.7 -200 0.4 c-110.1 0.1 -200.1 0.5 -200.1 0.7 0 2.7 13.9 33.1 15.9 34.6 0.7 0.6 6.8 9.6 9.2 13.7 0.7 1.3 2.3 2.9 3.3 3.5 1.1 0.6 1.9 1.7 1.9 2.4 0 1.7 24.8 26.4 26.5 26.4 0.6 0 1.7 0.7 2.2 1.6 1.2 1.9 11.9 9.3 13.4 9.3 0.6 0 1.7 0.7 2.4 1.6 1.3 1.6 15.5 8.8 23.9 12.2 17 6.8 45.3 12.8 60.1 12.8 10.8 0 24.5 3.1 31.5 7.4 8.5 4.8 16.5 13.4 21.1 22.4 3.5 6.9 3.6 7.7 3.6 22.9 l0 15.7 -4.8 9 c-3.4 6.2 -7.3 11.1 -12.7 16 -4.4 4 -8.5 7.1 -9.2 7.1 -0.7 0 -3.1 1 -5.4 2.2 -5.6 2.8 -42 3.4 -55.6 0.7z m199.8 -330.1 c0 -0.8 -0.8 -3.1 -1.8 -5.1 -1 -1.8 -1.8 -4.1 -1.8 -5.1 0 -0.8 -1.1 -3.4 -2.4 -5.6 -1.3 -2.2 -2.4 -4.7 -2.4 -5.7 0 -1 -1.3 -3.5 -3 -5.7 -1.7 -2.2 -3 -4.5 -3 -5.1 0 -1.1 -6.4 -11.3 -9.4 -14.9 -4.6 -5.6 -7.5 -9.4 -7.5 -9.9 0 -0.4 -4.2 -4.6 -9.3 -9.4 -5.2 -5 -10.8 -10.4 -12.6 -12.2 -1.8 -1.9 -3.8 -3.4 -4.4 -3.4 -0.7 0 -2.2 -1.1 -3.4 -2.4 -1.2 -1.3 -2.5 -2.4 -3 -2.4 -0.5 0 -4.4 -2.3 -8.7 -5.1 -9.7 -6.4 -32 -17 -39.2 -18.6 -1.9 -0.4 -7 -1.7 -11.4 -2.9 -29.1 -8 -70.6 -5.8 -97.5 5.1 -3.3 1.3 -7.4 2.8 -9.1 3.1 -1.7 0.2 -4.4 1.6 -6.1 2.7 -1.7 1.2 -5.4 3.3 -8.5 4.7 -13.4 6.4 -30.8 19.5 -41.7 31.5 -10.7 11.7 -10.3 11.3 -16.8 20.5 -2.4 3.4 -4.5 6.8 -4.5 7.4 0 0.6 -0.8 1.8 -1.9 2.7 -1.1 1 -3 3.9 -4.4 6.5 -1.2 2.7 -3 6.2 -3.9 7.9 -2.9 5.4 -5.6 11.4 -6.7 15.1 -0.6 2.1 -1.5 4.6 -1.9 5.8 -0.8 1.9 7.4 2.1 162.7 2.1 130 0 163.6 -0.4 163.6 -1.5z"/>
  <path d="M1902.1 902.9 c-8.2 -3.3 -17.6 -10 -22.8 -16.5 -2.2 -2.7 -3.9 -5.1 -3.9 -5.4 0 -0.4 -1.3 -2.5 -2.9 -4.8 -2.2 -3.3 -3.3 -7.3 -4.2 -16.1 -1.8 -15.5 -1.2 -461.8 0.6 -470.1 3.5 -15.5 17.9 -32 33.4 -38.3 7.5 -3 10.4 -3.5 19.7 -3.5 15.9 0.1 24.3 3.9 36.7 16.3 11.4 11.4 19.6 20.3 19.6 21.3 0 0.4 1.8 2.4 4 4.6 2.2 2.1 8 8.4 13 14 11.3 13.1 16.7 19 20.9 23.1 1.8 1.8 3.3 3.6 3.3 4.1 0 0.5 2.1 2.9 4.6 5.4 5.6 5.8 10.3 10.9 23.2 25.8 5.6 6.4 10.7 11.7 11.1 11.7 0.5 0 1 0.7 1 1.6 0 0.8 1.5 2.9 3.4 4.6 4.8 4.7 13.6 14.2 13.6 14.9 0 0.4 1.8 2.4 4 4.6 2.2 2.2 8.2 9 13.6 14.9 10.8 12.2 15.5 17.7 20 22.5 1.7 1.8 5.4 6.1 8.5 9.6 3 3.4 6.7 7.5 8 8.8 1.5 1.5 7.1 7.9 12.6 14.2 5.6 6.3 11.3 12.7 12.6 14.2 1.5 1.3 4.7 5.1 7.4 8.2 2.7 3.1 6.3 7.1 8 9 1.7 1.7 7.4 8.1 12.6 14 9.8 11.3 11.7 13.3 20 22.2 2.7 2.9 4.8 5.7 4.8 6.2 0 0.4 1.5 2.2 3.4 3.9 4.5 4.2 13.6 13.9 13.6 14.7 0 0.4 2.2 3 5 5.9 2.8 2.9 7.7 8.6 11.3 12.5 9.4 11 17.9 20.2 21.7 23.6 1.8 1.7 3.3 3.8 3.3 4.6 0 0.8 0.6 1.6 1.2 1.6 0.8 0 1.2 -53.6 1.2 -158.2 0.1 -169.4 0 -168.1 6.1 -176.2 1.3 -1.8 2.4 -3.9 2.4 -4.5 0 -0.6 4 -4.8 8.8 -9.2 8.4 -7.7 11 -9.2 23.9 -13.6 7.4 -2.4 21.9 -1.5 29.4 1.9 3 1.5 5.9 2.5 6.3 2.5 1.2 0 11.5 7.4 14.5 10.5 1.5 1.3 3 3.4 3.4 4.5 0.5 1.1 1.2 1.9 1.8 1.9 0.6 0 3 4.2 5.4 9.4 l4.5 9.4 -0.2 238.5 -0.4 238.4 -3.8 7.9 c-2.1 4.4 -4.7 8.6 -5.8 9.6 -1.1 0.8 -1.9 2.1 -1.9 2.5 0 1.2 -6.8 8.5 -7.9 8.5 -0.5 0 -2.1 1.2 -3.5 2.5 -1.6 1.5 -6.2 3.9 -10.3 5.4 -10.4 4 -31 4.2 -38.3 0.5 -2.7 -1.3 -5.2 -2.4 -5.7 -2.4 -1.6 0 -12.1 -8.4 -16.7 -13.2 -2.3 -2.4 -8.8 -9.7 -14.5 -16.2 -5.6 -6.4 -10.7 -11.7 -11.1 -11.7 -0.5 0 -1 -0.6 -1 -1.3 0 -0.7 -1.5 -2.8 -3.3 -4.6 -8 -8 -13.7 -14.5 -13.7 -15.7 0 -0.7 -0.5 -1.3 -1 -1.3 -0.6 0 -5.9 -5.6 -11.9 -12.3 -11.7 -13.7 -18.6 -21.3 -23.7 -26.5 -1.9 -1.8 -3.4 -3.9 -3.4 -4.6 0 -0.6 -0.7 -1.7 -1.7 -2.2 -1 -0.5 -4.8 -4.5 -8.6 -8.8 -3.9 -4.4 -10 -11.4 -13.8 -15.6 -3.8 -4.2 -8.8 -9.8 -11.3 -12.5 -2.5 -2.7 -4.6 -5.2 -4.6 -5.7 0 -0.4 -1.5 -2.2 -3.3 -3.9 -3.5 -3.1 -5.4 -5.3 -20.6 -22.6 -4.8 -5.6 -9.6 -10.9 -10.4 -11.7 -0.8 -0.7 -3.9 -4.2 -6.9 -7.7 -3 -3.5 -7.6 -8.7 -10.3 -11.6 -10.2 -11.1 -13.7 -14.9 -23.6 -26.4 -5.6 -6.4 -10.7 -11.7 -11.1 -11.7 -0.5 0 -1 -0.6 -1 -1.2 0 -1.3 -7.9 -10.3 -13.6 -15.6 -1.9 -1.7 -3.4 -3.8 -3.4 -4.6 0 -0.8 -0.5 -1.6 -1 -1.6 -0.6 0 -5.9 -5.6 -11.9 -12.3 -11.7 -13.7 -18.6 -21.3 -23.7 -26.5 -1.9 -1.8 -3.4 -3.9 -3.4 -4.6 0 -0.6 -0.8 -1.7 -1.8 -2.2 -1 -0.6 -6.7 -6.7 -12.7 -13.7 -6.1 -6.9 -12.5 -13.9 -14.2 -15.7 -1.7 -1.7 -4.5 -4.8 -6.3 -7.1 l-3.1 -4.1 -0.6 162.1 -0.6 162.1 -3.5 7.3 c-2.1 4 -4.2 8 -5.1 8.7 -0.8 0.8 -2.5 2.8 -3.8 4.2 -4.5 5.7 -14.5 12.8 -21.3 15.4 -9.9 3.6 -28.8 3.5 -38.4 -0.2z"/>
  <path d="M2470.6 903.2 c-2.7 -1.2 -5.6 -2.3 -6.3 -2.3 -3.8 -0.2 -16.6 -12.7 -21.4 -20.7 -7.7 -12.8 -7.4 -6.7 -7.4 -142.9 0 -131.4 0.5 -145.9 5.7 -166.5 1.3 -5.3 2.9 -11.9 3.4 -14.5 1.1 -5.6 5.3 -18.2 8.6 -25.8 1.3 -2.8 2.3 -5.8 2.3 -6.5 0 -1.6 14.2 -30.3 18.2 -37 1.3 -2.1 3.4 -5.4 4.6 -7.4 4.4 -7.3 13.6 -20.5 15.4 -21.9 1 -0.8 1.8 -2.1 1.8 -2.8 0 -1.3 -0.5 -0.8 20.2 -22.2 15.7 -16.1 28.1 -27.1 30.5 -27.1 0.7 0 1.3 -0.4 1.3 -1 0 -1 12.6 -9.8 23 -16 19.5 -11.6 33.8 -18.5 49.6 -24.1 26.8 -9.3 36.6 -11.6 66.6 -15.4 20.7 -2.7 47.8 -1.7 72.6 2.5 10.3 1.8 21.8 4.2 25.4 5.3 3.6 1.2 8.5 2.5 10.5 2.9 2.2 0.5 6.3 1.9 9.1 3.3 2.8 1.3 5.7 2.4 6.5 2.4 4.8 0 50.9 23.7 52.3 27 0.2 0.5 1.1 0.8 1.9 0.8 0.8 0 2.9 1.1 4.5 2.4 1.5 1.5 4.6 3.6 6.8 5 2.2 1.3 4 3 4 3.6 0 0.6 0.7 1.1 1.6 1.1 1 0 2.9 1.3 4.5 3 1.6 1.7 3.3 3 3.9 3 0.6 0 7.3 6.2 15 13.7 7.7 7.4 14.5 13.7 15.1 13.9 0.6 0.2 1.1 1.1 1.1 1.8 0 1.3 1 2.4 8.2 9.8 1.5 1.6 2.7 3.4 2.7 4.1 0 0.7 0.7 1.8 1.6 2.3 1.8 1.2 10.5 13.3 10.5 14.7 0 0.6 1.1 2.1 2.4 3.3 1.3 1.2 2.4 2.8 2.4 3.4 0 0.7 1.3 3 3 5.2 1.7 2.2 3 4.8 3 5.8 0 1.1 0.4 1.9 1 1.9 0.5 0 1.9 2.1 3.1 4.6 1.2 2.4 3 6.2 4.1 8.1 1.1 2.1 2.3 4.5 2.7 5.4 6.1 13.7 6.4 14.5 10.7 26.6 1 3 3.1 9 4.7 13.3 1.6 4.4 2.8 9 2.8 10.3 0 1.3 1.2 6.5 2.5 11.5 5 18.3 5.8 44.3 5.9 166.7 0 77 -0.5 117.2 -1.3 123.5 -1.7 12.2 -7.9 23.1 -18 32 -11 9.6 -16.8 11.4 -35.1 11.4 -13.7 -0.1 -15.7 -0.4 -21.8 -3.3 -3.8 -1.7 -7.5 -4 -8.4 -5.1 -0.8 -1.1 -2.4 -1.9 -3.3 -1.9 -1 0 -1.7 -0.4 -1.7 -0.8 0 -0.6 -2.5 -3.6 -5.4 -6.8 -3 -3.1 -5.4 -6.2 -5.4 -6.8 0 -0.6 -1.5 -3.6 -3.3 -6.9 l-3.4 -5.9 -0.4 -59.6 -0.4 -59.7 -85.6 -0.1 c-98.1 -0.2 -94.2 -0.2 -113.4 1.5 -15.5 1.3 -32.9 5.4 -44.8 10.4 -13.4 5.8 -24.7 11.3 -25.4 12.5 -0.4 0.7 -1.8 1.2 -3.1 1.2 -1.2 0 -2.3 0.5 -2.3 1 0 0.5 -2.4 2.5 -5.4 4.4 -3 1.9 -5.4 3.9 -5.4 4.5 0 0.5 -1 1.2 -2.3 1.7 -2.7 0.8 -17.6 15.3 -26.3 25.5 -11.5 13.6 -24.8 38 -29.8 55 -0.6 2.3 -1.7 4.8 -2.2 5.4 -0.5 0.7 -1.6 3.1 -2.3 5.6 -0.7 2.4 -2.5 5.4 -3.8 6.5 -1.3 1.2 -2.4 2.7 -2.4 3.1 0 1.1 -7.1 8.4 -8.2 8.4 -0.4 0 -1.8 1.1 -3.1 2.3 -1.5 1.3 -5.9 3.8 -10 5.4 -6.7 2.8 -9.2 3.1 -20.6 3 -10 0 -14.2 -0.6 -17.9 -2.3z m76.9 -214.3 c0 -0.7 0.7 -1.2 1.7 -1.2 1 0 2.5 -0.7 3.4 -1.6 2.8 -2.7 19.1 -12 28.8 -16.5 1 -0.5 3.5 -1.7 5.4 -2.8 16.6 -8.6 32.7 -13.9 61.7 -20.6 l17 -4 110.1 -0.4 110.1 -0.4 -0.6 -17.2 c-0.8 -23.2 -5.6 -46.6 -12.7 -62.6 -14 -30.8 -20.5 -39.7 -49.4 -67.8 -1.5 -1.3 -3.1 -2.4 -4 -2.4 -0.8 0 -1.5 -0.5 -1.5 -1.1 0 -0.6 -2.1 -2.4 -4.5 -3.9 -2.5 -1.6 -6.5 -4.1 -8.8 -5.7 -2.3 -1.5 -6.7 -3.9 -9.7 -5.2 -3 -1.5 -6.9 -3.6 -8.7 -4.8 -1.7 -1.3 -4 -2.3 -5.1 -2.3 -1.1 0 -4 -1 -6.5 -2.3 -2.4 -1.2 -10.4 -3.8 -17.8 -5.7 -13 -3.4 -14.2 -3.5 -43 -3.5 -26.8 0 -30.5 0.2 -38.1 2.7 -4.6 1.3 -10 2.9 -12 3.4 -1.9 0.4 -5.8 1.8 -8.5 3.1 -2.7 1.2 -5.6 2.3 -6.4 2.3 -0.8 0 -3.8 1.3 -6.4 3 -2.7 1.7 -5.3 3 -6.1 3 -0.7 0 -3.1 1.3 -5.3 3 -2.2 1.7 -4.4 3 -4.7 3 -1 0 -16.6 10.8 -19.6 13.6 -10.2 9.2 -23.2 22.5 -24 24.3 -0.4 1.1 -1.2 2.1 -1.8 2.1 -0.5 0 -3.4 3.6 -6.3 8.2 -3 4.5 -5.7 8.4 -6.2 8.7 -0.8 0.7 -6.7 12.1 -11 21.8 -4.7 10.3 -7.1 17.6 -10.4 32.1 -2.8 12.6 -3 15.9 -3.5 57.3 l-0.6 44.1 2.5 -1.5 c1.5 -0.7 2.5 -1.8 2.5 -2.4z"/>
 </g>
</svg>